<?xml version="1.0" encoding="UTF-8"?>
<svg xmlns="http://www.w3.org/2000/svg" viewBox="0 0 920 760" ><style>.stroke{stroke:#2347d9;fill:none;stroke-width:1.2}.stroke-2{stroke:#2347d9;fill:none;stroke-width:1.8}.stroke-soft{stroke:#93a8f0;fill:none;stroke-width:1}.fill{fill:#2347d9}.fill-soft{fill:#eef2ff}.fill-orange{fill:#f6802b}.fill-green{fill:#2f8f5b}.lead{stroke:#2347d9;fill:none;stroke-width:0.8}.dashed{stroke:#2347d9;fill:none;stroke-width:0.8;stroke-dasharray:3 3}.grid{stroke:#d8e0f5;fill:none;stroke-width:0.5}.lbl{font-family:'JetBrains Mono','SF Mono',Menlo,monospace;font-size:9.5px;fill:#2347d9;letter-spacing:0.06em;text-transform:uppercase}.lbl-soft{font-family:'JetBrains Mono','SF Mono',Menlo,monospace;font-size:9px;fill:#9ca3af;letter-spacing:0.06em;text-transform:uppercase}.lbl-big{font-family:'JetBrains Mono','SF Mono',Menlo,monospace;font-size:11px;fill:#2347d9;letter-spacing:0.06em;text-transform:uppercase;font-weight:600}.body{font-family:'Iowan Old Style',Palatino,Georgia,serif;font-size:11px;fill:#1f2937}</style><rect width="100%" height="100%" fill="#fffdf6"/>
          <defs>
            <pattern id="f0-hatch" width="8" height="8" patternUnits="userSpaceOnUse" patternTransform="rotate(-28)">
              <line x1="0" y1="0" x2="0" y2="8" class="grid"/>
            </pattern>
          </defs>

          <text x="28" y="30" class="lbl-big">FIG. 0 · EXPLODED ISOMETRIC AERIAL MANIPULATOR</text>
          <text x="28" y="46" class="lbl-soft">DJI MATRICE 100 · REALSENSE D435i · FIXED 3D-PRINTED ARM · PASSIVE MAGNETIC GRIPPER</text>
          <line x1="28" y1="58" x2="892" y2="58" class="stroke-soft"/>

          <g opacity="0.52">
            <path d="M 244 724 C 354 690 570 690 676 724 C 568 750 352 750 244 724 Z" fill="url(#f0-hatch)" stroke="#d8e0f5" stroke-width="0.7"/>
            <line x1="420" y1="86" x2="420" y2="674" class="dashed"/>
            <line x1="462" y1="82" x2="462" y2="680" class="dashed"/>
            <line x1="504" y1="86" x2="504" y2="674" class="dashed"/>
            <text x="306" y="700" class="lbl-soft">EXPLODED CENTERLINES</text>
          </g>

          <g opacity="0.46">
            <line x1="306" y1="130" x2="318" y2="188" class="stroke-soft"/>
            <line x1="614" y1="130" x2="602" y2="188" class="stroke-soft"/>
            <line x1="330" y1="174" x2="352" y2="262" class="stroke-soft"/>
            <line x1="590" y1="174" x2="568" y2="262" class="stroke-soft"/>
            <line x1="344" y1="288" x2="360" y2="354" class="stroke-soft"/>
            <line x1="576" y1="288" x2="560" y2="354" class="stroke-soft"/>
            <line x1="438" y1="440" x2="438" y2="504" class="stroke-soft"/>
            <line x1="486" y1="440" x2="486" y2="504" class="stroke-soft"/>
          </g>

          <!-- propeller layer -->
          <g>
            <g transform="translate(316,118)">
              <path d="M -68 -4 C -44 -18 -17 -15 0 0 C -22 10 -46 13 -68 4 Z" class="stroke fill-soft"/>
              <path d="M 68 4 C 44 18 17 15 0 0 C 22 -10 46 -13 68 -4 Z" class="stroke fill-soft"/>
              <ellipse cx="0" cy="0" rx="14" ry="6" class="stroke" fill="#fffdf6"/>
              <circle cx="0" cy="0" r="4" class="fill"/>
            </g>
            <g transform="translate(604,118)">
              <path d="M -68 -4 C -44 -18 -17 -15 0 0 C -22 10 -46 13 -68 4 Z" class="stroke fill-soft"/>
              <path d="M 68 4 C 44 18 17 15 0 0 C 22 -10 46 -13 68 -4 Z" class="stroke fill-soft"/>
              <ellipse cx="0" cy="0" rx="14" ry="6" class="stroke" fill="#fffdf6"/>
              <circle cx="0" cy="0" r="4" class="fill"/>
            </g>
            <g transform="translate(284,164)">
              <path d="M -68 -4 C -44 -18 -17 -15 0 0 C -22 10 -46 13 -68 4 Z" class="stroke fill-soft"/>
              <path d="M 68 4 C 44 18 17 15 0 0 C 22 -10 46 -13 68 -4 Z" class="stroke fill-soft"/>
              <ellipse cx="0" cy="0" rx="14" ry="6" class="stroke" fill="#fffdf6"/>
              <circle cx="0" cy="0" r="4" class="fill"/>
            </g>
            <g transform="translate(636,164)">
              <path d="M -68 -4 C -44 -18 -17 -15 0 0 C -22 10 -46 13 -68 4 Z" class="stroke fill-soft"/>
              <path d="M 68 4 C 44 18 17 15 0 0 C 22 -10 46 -13 68 -4 Z" class="stroke fill-soft"/>
              <ellipse cx="0" cy="0" rx="14" ry="6" class="stroke" fill="#fffdf6"/>
              <circle cx="0" cy="0" r="4" class="fill"/>
            </g>
            <line x1="224" y1="116" x2="204" y2="102" class="lead"/>
            <text x="38" y="98" class="lbl">4× ROTOR DISKS</text>
            <text x="38" y="112" class="lbl-soft">PROPS ABOVE MOTOR PLANE</text>
          </g>

          <!-- motor layer -->
          <g>
            <g>
              <ellipse cx="326" cy="198" rx="18" ry="6" class="stroke fill-soft"/>
              <path d="M 308 198 L 308 220 L 344 220 L 344 198" class="stroke" fill="#eef2ff"/>
              <line x1="316" y1="201" x2="316" y2="218" class="grid"/>
              <line x1="336" y1="201" x2="336" y2="218" class="grid"/>
              <ellipse cx="326" cy="220" rx="18" ry="6" class="stroke" fill="#fffdf6"/>
            </g>
            <g>
              <ellipse cx="594" cy="198" rx="18" ry="6" class="stroke fill-soft"/>
              <path d="M 576 198 L 576 220 L 612 220 L 612 198" class="stroke" fill="#eef2ff"/>
              <line x1="584" y1="201" x2="584" y2="218" class="grid"/>
              <line x1="604" y1="201" x2="604" y2="218" class="grid"/>
              <ellipse cx="594" cy="220" rx="18" ry="6" class="stroke" fill="#fffdf6"/>
            </g>
            <g>
              <ellipse cx="352" cy="236" rx="18" ry="6" class="stroke fill-soft"/>
              <path d="M 334 236 L 334 258 L 370 258 L 370 236" class="stroke" fill="#eef2ff"/>
              <ellipse cx="352" cy="258" rx="18" ry="6" class="stroke" fill="#fffdf6"/>
            </g>
            <g>
              <ellipse cx="568" cy="236" rx="18" ry="6" class="stroke fill-soft"/>
              <path d="M 550 236 L 550 258 L 586 258 L 586 236" class="stroke" fill="#eef2ff"/>
              <ellipse cx="568" cy="258" rx="18" ry="6" class="stroke" fill="#fffdf6"/>
            </g>
            <line x1="612" y1="205" x2="660" y2="190" class="lead"/>
            <text x="668" y="186" class="lbl">MOTOR CANS</text>
            <text x="668" y="200" class="lbl-soft">4 BLDC UNITS · THRUST + TORQUE</text>
          </g>

          <!-- chassis layer -->
          <g>
            <path d="M 298 300 L 454 254 L 626 300 L 470 350 Z" class="stroke fill-soft" stroke-width="1.5"/>
            <path d="M 298 300 L 470 350 L 470 378 L 298 328 Z" class="stroke" fill="#e3e9ff"/>
            <path d="M 470 350 L 626 300 L 626 328 L 470 378 Z" class="stroke" fill="#d8e1fb"/>
            <path d="M 302 300 L 214 268" class="stroke-2"/>
            <path d="M 622 300 L 706 268" class="stroke-2"/>
            <path d="M 322 328 L 238 364" class="stroke-2"/>
            <path d="M 600 328 L 682 364" class="stroke-2"/>
            <rect x="374" y="292" width="72" height="30" class="stroke" fill="#fffdf6"/>
            <line x1="382" y1="300" x2="438" y2="300" class="grid"/>
            <line x1="382" y1="314" x2="438" y2="314" class="grid"/>
            <text x="410" y="311" class="lbl-soft" text-anchor="middle">NUC</text>
            <rect x="458" y="286" width="82" height="34" class="stroke" fill="#fffdf6"/>
            <line x1="468" y1="294" x2="530" y2="294" class="grid"/>
            <text x="499" y="307" class="lbl-soft" text-anchor="middle">BATTERY</text>
            <circle cx="424" cy="270" r="7" class="stroke" fill="#fffdf6"/>
            <circle cx="462" cy="265" r="7" class="stroke" fill="#fffdf6"/>
            <circle cx="500" cy="270" r="7" class="stroke" fill="#fffdf6"/>
            <line x1="414" y1="296" x2="228" y2="284" class="lead"/>
            <text x="38" y="280" class="lbl">INTEL NUC i7</text>
            <text x="38" y="294" class="lbl-soft">UBUNTU 14.04 · ROS ONBOARD</text>
            <line x1="462" y1="265" x2="208" y2="236" class="lead"/>
            <text x="38" y="232" class="lbl">OPTITRACK MARKERS</text>
            <text x="38" y="246" class="lbl-soft">6-CAMERA MOCAP ODOMETRY</text>
            <line x1="620" y1="318" x2="660" y2="328" class="lead"/>
            <text x="668" y="324" class="lbl">MATRICE 100 FRAME</text>
            <text x="668" y="338" class="lbl-soft">~3 KG QUADROTOR PLATFORM</text>
          </g>

          <!-- camera and lower plate -->
          <g>
            <path d="M 330 430 L 460 392 L 598 430 L 468 470 Z" class="stroke fill-soft" stroke-width="1.5"/>
            <path d="M 468 470 L 598 430 L 598 452 L 468 492 Z" class="stroke" fill="#d8e1fb"/>
            <path d="M 330 430 L 468 470 L 468 492 L 330 452 Z" class="stroke" fill="#e3e9ff"/>
            <path d="M 520 436 L 574 420 L 616 434 L 562 452 Z" class="stroke" fill="#fffdf6"/>
            <path d="M 562 452 L 616 434 L 616 464 L 562 482 Z" class="stroke" fill="#e3e9ff"/>
            <path d="M 520 436 L 562 452 L 562 482 L 520 466 Z" class="stroke" fill="#eef2ff"/>
            <circle cx="588" cy="454" r="6" stroke="#2347d9" fill="#fffdf6" stroke-width="1.2"/>
            <circle cx="608" cy="448" r="6" stroke="#2347d9" fill="#fffdf6" stroke-width="1.2"/>
            <circle cx="588" cy="454" r="2" class="fill"/>
            <circle cx="608" cy="448" r="2" class="fill"/>
            <rect x="534" y="456" width="18" height="8" class="stroke" fill="#fffdf6"/>
            <line x1="614" y1="444" x2="660" y2="424" class="lead"/>
            <text x="668" y="420" class="lbl">REALSENSE D435i</text>
            <text x="668" y="434" class="lbl-soft">RGB + IR ACTIVE STEREO</text>
            <text x="668" y="448" class="lbl-soft">640×480 @ 15 FPS</text>
            <text x="668" y="462" class="lbl-soft">DEPTH 0.3–10 M</text>
          </g>

          <!-- fixed arm and gripper -->
          <g>
            <path d="M 442 510 L 482 498 L 482 606 L 442 618 Z" class="stroke fill-soft" stroke-width="1.5"/>
            <path d="M 482 498 L 498 506 L 498 612 L 482 606 Z" class="stroke" fill="#d8e1fb"/>
            <line x1="448" y1="542" x2="486" y2="530" class="stroke-soft"/>
            <line x1="448" y1="572" x2="486" y2="560" class="stroke-soft"/>
            <path d="M 425 626 L 453 618 L 453 648 L 425 658 Z" class="stroke fill-soft" stroke-width="1.5"/>
            <path d="M 490 616 L 518 624 L 518 656 L 490 646 Z" class="stroke fill-soft" stroke-width="1.5"/>
            <rect x="454" y="640" width="36" height="10" stroke="#c64545" fill="#fffdf6" stroke-width="1.2"/>
            <line x1="500" y1="548" x2="660" y2="538" class="lead"/>
            <text x="668" y="534" class="lbl">3D-PRINTED ARM</text>
            <text x="668" y="548" class="lbl-soft">FIXED JOINT · r CONSTANT</text>
            <text x="668" y="562" class="lbl-soft">NO ARM MOTION · ṙ = 0</text>
            <line x1="454" y1="646" x2="226" y2="636" class="lead"/>
            <text x="38" y="632" class="lbl">PASSIVE MAGNETIC GRIPPER</text>
            <text x="38" y="646" class="lbl-soft">MAGNET + LSM303 FIELD JUMP</text>
          </g>

          <!-- target fruit -->
          <g>
            <circle cx="468" cy="694" r="20" fill="#f6802b" stroke="#c75d18" stroke-width="1.4"/>
            <path d="M 466 675 C 468 664 478 662 484 668" stroke="#2f8f5b" fill="none" stroke-width="1.4"/>
            <ellipse cx="461" cy="688" rx="5" ry="3" fill="#fffdf6" opacity="0.65"/>
            <rect x="458" y="672" width="18" height="6" stroke="#c64545" fill="#fffdf6" stroke-width="1"/>
            <line x1="489" y1="692" x2="660" y2="672" class="lead"/>
            <text x="668" y="668" class="lbl">MAGNET-EQUIPPED ORANGE</text>
            <text x="668" y="682" class="lbl-soft">DETACHABLE TARGET</text>
            <text x="668" y="696" class="lbl-soft">REPOSITIONED EACH TRIAL</text>
          </g>

          <text x="892" y="742" class="lbl-soft" text-anchor="end">FIG. 0 · APPARATUS · EXPLODED</text>
        </svg>